<?xml version="1.0" encoding="utf-8"?>
<!DOCTYPE svg PUBLIC "-//W3C//DTD SVG 1.0//EN" "http://www.w3.org/TR/2001/REC-SVG-20010904/DTD/svg10.dtd">
<svg version="1.0" xmlns="http://www.w3.org/2000/svg" width="1024px" height="1024px" viewBox="0 0 1024 1024" preserveAspectRatio="xMidYMid meet">
 <g fill="#071426">
  <path d="M0 512 l0 -512 512 0 512 0 0 512 0 512 -512 0 -512 0 0 -512z m396.1 290 c2.7 -1.5 2.4 -4.7 -1.2 -11.8 -4.3 -8.7 -11.3 -14.7 -18.7 -16.3 -25.8 -5.3 -49.7 -26.5 -58.6 -52 -4.6 -13.2 -5.6 -22 -6.6 -62.4 -0.6 -20.9 -1.7 -44.1 -2.6 -51.5 -2.8 -23.7 -8.8 -43.3 -18.2 -59.4 -5.4 -9.3 -20.5 -25.2 -29.4 -31.1 -5.5 -3.6 -5.8 -4 -5.8 -7.9 0.1 -3.9 0.3 -4.3 6.7 -8.5 14.1 -9.6 25.1 -22.7 34.1 -40.6 11.9 -23.7 13.7 -37.7 16.2 -122 0.7 -26.6 1.2 -33.4 2.9 -40.2 5.3 -21.4 17.7 -39 35.9 -50.7 8.6 -5.6 13.5 -7.8 22.9 -10.1 11.3 -2.7 20.3 -11 23.5 -21.7 1 -3.3 0.9 -4.1 -0.5 -5.5 -1.5 -1.5 -2.6 -1.5 -11.1 -0.4 -42.6 5.6 -71.6 21.3 -85.2 46.2 -9.4 17.2 -12.7 29.5 -14.4 54.9 -0.5 8 -1 21.7 -1 30.5 0 19.8 -1.6 56.2 -3.1 71.5 -3.2 32.4 -15.9 56.3 -37.2 70.3 -9.5 6.2 -13.9 8.1 -22.8 9.7 -9 1.6 -9.8 1.9 -11.1 4.3 -3.4 6.3 -2.5 19.8 1.5 23.5 1.2 1 5.1 2.7 8.7 3.7 21.7 5.9 43.2 24.8 51.6 45.5 6.2 15.4 9 36.5 9.9 75 1.5 65.2 4.5 85.1 16.2 105.3 8.2 14 25.2 29.5 41.8 37.9 12.2 6.2 35.6 12.7 52.3 14.7 0.7 0 2.2 -0.4 3.3 -0.9z m254.2 -1.6 c11.2 -1.9 31.2 -7.6 39.2 -11.1 12.1 -5.4 19.9 -10.8 29.5 -20.3 7.5 -7.4 10.5 -11.3 13.9 -17.8 10.8 -21 13.3 -37.7 15.1 -103.7 1.2 -44 2.6 -56 8.9 -74.3 3.6 -10.2 8 -17.8 15 -25.4 10.8 -11.8 24.1 -20.1 37.9 -23.9 9 -2.4 9.5 -2.9 11.2 -10.4 1.3 -5.7 -0.2 -14.7 -2.9 -17.4 -1 -1 -4.9 -2.3 -9.2 -3 -18.9 -3.3 -37.4 -17.9 -47.8 -38.1 -11.1 -21.5 -12.9 -35.4 -15.1 -117.5 -1.2 -44.7 -2.6 -55.2 -10 -71.1 -8.7 -18.8 -22.5 -33.1 -40.5 -42.1 -13.5 -6.8 -41.8 -14.4 -54 -14.6 -7.5 -0.2 -8 -0.1 -8.3 2 -0.6 4.3 3.8 12.1 10.3 18.2 5.6 5.2 7.1 6 13.6 7.6 21.4 5.2 41.9 22.5 52.9 44.4 7.7 15.4 8.9 23.6 10 70 1 41.7 2.1 58.7 4.6 74.1 5.4 32.2 19.5 56.7 42.3 73.5 7.6 5.6 8.1 6.2 8.1 9.7 0 3.5 -0.5 4 -6.2 7.9 -18.8 12.6 -35.3 36.5 -41.9 60.4 -5.1 18.7 -6 27.9 -6.9 72.5 -1.1 53.3 -2.3 62.9 -9.6 78.8 -10.1 22.1 -29.3 38.6 -51.5 44.2 -8.4 2.2 -12.8 4.7 -18.2 10.5 -5.4 5.7 -9.3 15.6 -7 17.8 1.1 1.1 7.2 0.8 16.6 -0.9z m-14.3 -142.5 c13.9 -3.5 25.7 -10.8 33.5 -20.6 23.1 -29.2 23 -85.7 -0.2 -119.9 -6.7 -9.7 -10.2 -13.7 -41.2 -44.9 -16.9 -17 -31.4 -32.6 -33.6 -36 -2.1 -3.2 -5.3 -9.8 -6.9 -14.5 -2.9 -7.9 -3.1 -9.4 -3.1 -22.5 0 -13.8 0 -14.1 3.4 -21.3 4 -8.5 9.6 -14.2 17.9 -18 5 -2.4 6.9 -2.7 16.2 -2.7 12.3 0 18 1.6 25.5 7.3 7.5 5.7 10.8 12.8 11.3 24.7 0.5 11 -0.2 10.5 14.1 10.5 l9.4 0 -0.6 -12.7 c-1 -20.8 -5.2 -33.8 -13.5 -42.2 -9.8 -9.8 -25.8 -15.4 -44.7 -15.5 -14.4 -0.1 -19.8 1.1 -32.4 7.1 -16.6 8 -27.6 21.2 -34.7 41.8 -2.4 7.1 -2.8 9.5 -2.8 21 -0.1 14.2 0.9 19.7 5.7 31.5 5.9 14.4 13.7 24.7 38.6 50.5 41.5 42.9 49.8 53.8 56.6 74 4 11.6 4.7 30.6 1.6 41.8 -2.8 10.4 -6.3 17 -12.2 23.2 -8.9 9.4 -19.6 13.2 -34.8 12.3 -9.9 -0.6 -17 -3.8 -23.5 -10.8 -9.7 -10.4 -13.6 -23.3 -13.6 -46 l0 -14.5 -12.9 0.3 -12.9 0.3 -0.5 4.7 c-0.7 6.3 1 30.8 2.8 39.4 4.6 21.9 15.6 37.3 32.5 45.8 17.6 8.8 35.5 10.8 55 5.9z m-234.7 -66.7 c0.2 -50.5 0.5 -65.4 1.4 -66 0.7 -0.5 7.8 -0.9 15.7 -1 17.1 -0.2 30 -1.5 41.3 -4.2 33.1 -7.8 52.2 -24.9 60.1 -53.8 2.5 -9.3 2.7 -10.7 2.7 -34.7 0 -35.8 -2.6 -52.9 -10.2 -68.5 -6.9 -14.2 -21.2 -24.8 -40.8 -30.3 -7.8 -2.2 -9 -2.2 -54.9 -1.9 -25.9 0.1 -47.1 0.4 -47.3 0.6 -0.3 0.2 -0.6 320.1 -0.3 324.9 0 0.4 7.2 0.6 16.1 0.5 l16 -0.3 0.2 -65.3z"/>
  <path d="M401.4 494.9 c-1.3 -2 -0.7 -132 0.6 -135.4 l1 -2.7 28.3 0.4 c24.8 0.4 29 0.7 35 2.5 12.5 3.8 20.3 10.8 24.3 21.9 4 10.9 2.8 73.9 -1.6 85.6 -5.3 14.3 -15.2 21.3 -36.5 26 -11.9 2.6 -49.7 3.8 -51.1 1.7z"/>
 </g>
 <g fill="#3b33df">
  <path d="M603.8 663 c-15.7 -2 -30.5 -8.7 -40.4 -18.4 -5.7 -5.5 -6.4 -6.6 -6.5 -10.1 0 -2.2 -0.3 -3.4 -0.6 -2.7 -0.9 2.2 -2 1.3 -4.2 -3.3 -3.1 -6.5 -2.8 -7.5 1.9 -7.5 3.8 0 4 0.2 4 3 0 1.7 0.3 3 0.6 3 0.9 0 3 -2.3 3.6 -4.1 0.4 -0.9 2.7 -2.2 5.2 -3 3.9 -1.1 4.5 -1.7 4.8 -4.4 0.3 -2.8 0.6 -3 5.2 -3.3 4.7 -0.3 4.9 -0.2 10.2 5.7 9.1 10 19.7 13.7 32.6 11.1 8.3 -1.6 14.7 -5.2 20.7 -11.5 5.9 -6.2 9.4 -12.8 12.2 -23.2 4.8 -17.2 -0.1 -40.3 -12.3 -58 l-2.9 -4.2 2.8 -0.7 c1.5 -0.4 3.3 -1 3.8 -1.4 0.6 -0.5 2.7 -1.1 4.8 -1.5 2 -0.4 3.7 -1.1 3.7 -1.6 0 -0.5 1.6 -0.9 3.5 -0.9 2.8 0 3.5 0.4 3.5 1.9 0 2.6 2.1 3.2 12.3 3.8 6.4 0.4 8.7 0.9 8.7 1.9 0 0.8 0.4 1.4 0.8 1.4 1.1 0 3.9 8.1 5.7 16.5 2.2 10.3 3 31.2 1.6 43.6 -4.7 43.4 -27.8 66.5 -68.4 68.3 -5.6 0.3 -13.2 0.1 -16.9 -0.4z"/>
  <path d="M773.3 550.3 c-3.2 -1.2 0 -11.3 3.5 -11.3 0.6 0 0.8 -1.5 0.5 -3.7 -0.2 -2.1 0 -5.7 0.5 -8 1.3 -5.5 -1.1 -11.2 -4.5 -11.3 -1.4 0 -2.3 -0.6 -2.3 -1.5 0 -0.8 -0.5 -1.5 -1.2 -1.5 -0.6 0 -0.3 -0.9 0.8 -2.1 1.9 -2.1 1.9 -2.2 -0.6 -3.8 -12.9 -8.4 -25.7 -21.9 -33.4 -35 -12.7 -21.7 -16.7 -41.1 -18.8 -90.1 -1.3 -32.2 -0.9 -37.7 2.7 -38.6 1.3 -0.3 2.6 -1.2 2.9 -2 0.3 -0.8 1.9 -1.4 3.6 -1.4 1.9 0 3 -0.5 3 -1.4 0 -1.7 2.2 -2.6 6.1 -2.6 2.4 0 2.9 0.4 2.9 2.5 0 1.6 0.6 2.5 1.5 2.5 0.8 0 1.5 -0.4 1.5 -1 0 -0.5 1.5 -1 3.4 -1 l3.4 0 0.6 13.3 c0.3 7.2 1 23.4 1.6 35.8 1.4 32.7 4.4 47.1 13.1 63.9 10.4 20.2 28.9 34.8 47.8 38.1 4.3 0.7 8.2 2 9.2 3 4 4 4.9 20.3 1.5 28.2 -1.2 3 -2 3.5 -9.7 5.6 -12.4 3.4 -23.1 9.5 -33.9 19.7 -2.5 2.3 -5.1 4 -5.7 3.7z"/>
 </g>
 <g fill="#5c15dc">
  <path d="M632.3 804.9 c-2 -0.7 -2.3 -1.6 -2.3 -6.4 0 -13 10.5 -24.6 25.9 -28.5 22.3 -5.7 41.4 -22.1 51.6 -44.3 7.2 -15.8 8.4 -25.6 9.5 -78.7 0.9 -44.6 1.8 -53.8 6.9 -72.5 6.8 -24.6 23.1 -47.8 43.3 -61.3 6.2 -4.2 7.5 -5.5 7.1 -7.2 -0.7 -2.5 2.2 -2.8 3.5 -0.4 1.7 3 0 6 -3 5.5 -0.5 0 -0.8 0.4 -0.8 1 0 0.7 1 0.9 2.5 0.7 1.7 -0.4 2.5 -0.1 2.5 0.8 0 0.8 0.9 3.1 2 5.1 2.2 4.1 2.5 6.4 1.1 7.9 -0.4 0.5 -1.1 2.4 -1.4 4.2 -0.5 2.3 -0.3 3.2 0.7 3.2 1.5 0 1.6 3.6 0.2 5.8 -0.4 0.7 -0.2 1.2 0.3 1.2 0.6 0 1.1 0.4 1.1 0.9 0 0.5 -0.9 0.7 -2 0.4 -2.5 -0.7 -6.8 3.6 -4.9 4.8 0.9 0.5 0 2.1 -2.7 5.2 -10.7 12.2 -17.1 29.5 -20.4 54.7 -0.6 4.7 -1.5 24.3 -2 43.5 -1.8 66 -4.3 82.7 -15.1 103.7 -3.4 6.5 -6.4 10.4 -13.9 17.8 -13.6 13.5 -25.2 19.9 -47.7 26.4 -17.7 5.1 -37.7 8.2 -42 6.5z"/>
  <path d="M812.8 524.6 c-2.1 -1.6 -2.3 -3.2 -0.5 -3.9 2.3 -0.9 3.8 0.7 3 3.1 -0.7 1.7 -1.1 1.9 -2.5 0.8z"/>
  <path d="M817 518.3 c0 -1.1 0.4 -2.3 1 -2.9 1.2 -1.2 0.1 -5.6 -1.4 -5.1 -0.6 0.2 -1 2.1 -0.9 4.1 0.2 2.6 -0.2 3.6 -1.2 3.6 -2 0 -2.4 -7.1 -0.5 -7.8 0.5 -0.2 0.7 -0.9 0.4 -1.7 -0.3 -0.7 -0.1 -1.6 0.4 -1.9 0.6 -0.3 1.2 0.1 1.6 0.9 0.3 0.8 1.2 1.2 2.1 0.9 1.1 -0.5 1.4 -0.2 0.8 1.2 -0.4 1.2 -0.3 1.5 0.6 1 0.9 -0.6 1 0 0.5 2 -0.4 1.5 -0.7 3.6 -0.8 4.7 -0.1 2.6 -2.6 3.5 -2.6 1z"/>
 </g>
 <g fill="#1c53de">
  <path d="M383.2 805 c-6 -0.9 -6.7 -1.3 -5.9 -3.5 0.7 -1.7 7.7 -2.2 7.7 -0.5 0 0.7 1.3 0.9 3.3 0.6 11.8 -1.8 12.7 -1.8 12.7 0.3 0 3.9 -5.5 4.9 -17.8 3.1z"/>
  <path d="M385.8 659.3 c-11.2 -0.4 -10.7 0.1 -11.5 -12 -0.5 -6.7 -0.3 -8.5 1.1 -9.8 0.9 -0.9 1.6 -2.7 1.6 -4.1 0 -1.3 0.5 -2.4 1 -2.4 0.6 0 1 -1.8 1 -4 0 -2.7 0.5 -4.3 1.5 -4.6 0.9 -0.4 1.5 -1.9 1.5 -3.5 0 -1.6 0.5 -2.9 1 -2.9 0.6 0 1 -0.9 1 -2 0 -1.9 0.7 -2 9.4 -2 l9.4 0 0.7 16.3 c0.4 8.9 0.8 19.6 0.9 23.7 l0.1 7.5 -4.5 0.1 c-2.5 0 -8.8 -0.1 -14.2 -0.3z"/>
  <path d="M542.5 578.5 c-0.4 -3 -0.5 -8.1 -0.2 -11.3 0.4 -3.1 0.6 -6.3 0.7 -6.9 0 -0.9 2 -1.3 6.5 -1.3 5.7 0 6.5 0.2 6.5 1.9 0 1.9 -2.5 3.1 -6.7 3.1 -2.2 0 -2.3 0.3 -2.3 10 0 9.2 -0.2 10 -1.9 10 -1.6 0 -2.1 -1 -2.6 -5.5z"/>
  <path d="M588.4 477.8 c-17.9 -18.6 -26.7 -30.5 -32.1 -43.8 -5 -12.3 -5.8 -17.1 -5.7 -34.5 0 -14.8 0.2 -16.6 2.8 -24 4.6 -13.4 9.3 -21.3 17.7 -29.6 6.2 -6.3 9.3 -8.5 17 -12.2 12.9 -6.2 17.8 -7.2 34.9 -7.2 16.9 0 24.7 1.6 36.2 7.3 8.7 4.4 10.2 7.2 3.9 7.2 -2.8 0 -4.1 -0.4 -4.1 -1.4 0 -1.2 -4 -2.6 -7.5 -2.6 -1.5 0 -2.9 12.3 -2.6 23.8 0.3 9.4 0 9.6 -6.8 5.2 -18.4 -11.8 -41.8 -4.8 -51.2 15.2 -3.2 6.9 -3.4 7.8 -3.4 18.3 0.1 9.6 0.4 12 3.1 19.5 4.1 11.7 8.8 18.3 23.1 33.1 6.8 6.9 12.3 13.2 12.3 13.9 0 0.9 -1.7 1 -6.9 0.5 l-7 -0.7 -1.5 3.1 c-0.9 1.6 -1.6 3.7 -1.6 4.6 0 1.1 -1 1.5 -3.5 1.5 -2.8 0 -3.5 0.4 -3.5 2 0 1.4 -0.7 2 -2.2 2 -2.1 0.1 -2.1 0.2 -0.5 1.1 2.1 1.2 2.4 7.9 0.4 7.9 -0.8 0 -5.9 -4.6 -11.3 -10.2z"/>
  <path d="M650.2 373.5 l-2.2 -3.5 4 0 c3.9 0 4 0.1 4 3.5 0 4.7 -2.7 4.7 -5.8 0z"/>
  <path d="M630.2 210.3 c0.2 -3.1 0.7 -3.9 2.6 -4.1 2 -0.3 2.2 0.1 2.2 3.7 0 3.7 -0.2 4.1 -2.6 4.1 -2.3 0 -2.5 -0.3 -2.2 -3.7z"/>
 </g>
 <g fill="#135ddf">
  <path d="M307.9 769.2 c-22 -23.4 -26.7 -43.2 -28.4 -121.2 -0.9 -37.5 -3.6 -59 -9.4 -73.8 l-2.1 -5.2 2.5 0 c1.5 0 2.5 0.6 2.5 1.4 0 1 1.5 1.7 4.4 2.1 6.3 1 8.6 0 8.6 -3.6 0 -2.7 0.3 -2.9 3.5 -2.9 3 0 3.5 -0.3 3.5 -2.2 0 -3.6 1.5 -5 4.6 -4.6 3.4 0.4 5 4 9.4 21.3 4.3 16.6 5.9 34.1 7 76 1.1 40.5 2 49.2 6.6 62.4 1.4 4.1 4.3 10.3 6.5 13.9 2.1 3.5 3.9 6.6 3.9 6.8 0 0.2 -1.6 0.4 -3.5 0.4 -3.1 0 -3.5 -0.3 -3.5 -2.5 0 -1.6 -0.6 -2.5 -1.5 -2.5 -0.8 0 -1.5 -0.5 -1.5 -1 0 -0.6 -0.9 -2 -1.9 -3.2 -1.1 -1.1 -3.1 -4.8 -4.5 -8.2 -1.4 -3.3 -2.5 -5.3 -2.6 -4.3 0 1.1 -0.8 1.7 -2.3 1.7 -1.5 0 -2.9 0.9 -3.7 2.5 -0.7 1.4 -1.9 2.5 -2.6 2.5 -1 0 -1.2 1.3 -0.7 5 0.5 4 0.3 5 -0.9 5 -1 0 -1.3 0.9 -1 3.6 0.3 2.5 -0.1 3.9 -1.3 4.8 -1.7 1.2 -1.7 1.5 0.6 5.7 3.4 6.2 9.6 14.7 13.1 17.8 2.5 2.2 2.9 3.2 2.6 6.5 l-0.3 3.9 -7.6 -8.1z"/>
  <path d="M365.9 659.3 c-0.6 -4.4 0.5 -102.9 1.1 -103.3 0.5 -0.3 1.2 -3 1.5 -6 0.4 -3 1.3 -6 2 -6.5 1.2 -1 1.6 -2.6 3.4 -14.5 1.2 -7.6 2.1 -10.2 4.2 -12.3 1.1 -1 1.9 -2.6 1.9 -3.7 0 -1 0.4 -2.1 0.9 -2.5 0.5 -0.3 1.2 -1.8 1.6 -3.4 0.3 -1.6 1.5 -3.9 2.6 -5.2 1 -1.2 1.9 -3.2 1.9 -4.5 0 -1.3 0.5 -2.6 1 -2.9 0.6 -0.3 1 -2.2 1 -4.1 0 -1.9 0.4 -3.4 0.9 -3.4 0.5 0 1.2 -1.3 1.6 -2.9 0.9 -4.4 3.8 -7.1 7.3 -7.1 3.5 0 3.9 0.8 5.1 10.3 l0.6 5.2 17 -0.1 c38 -0.2 57.2 -8.6 64.5 -28.2 4.4 -11.6 5.5 -68.7 1.6 -79.6 -2.7 -7.4 -6.2 -12.1 -12.2 -16.2 -3.6 -2.5 -5.4 -4.4 -5.4 -5.8 0 -3.3 2 -9.6 3 -9.6 0.6 0 1 -0.9 1 -2 0 -1.1 0.7 -2 1.5 -2 0.9 0 1.5 -0.9 1.5 -2.3 0 -1.3 0.5 -2.8 1 -3.3 0.6 -0.6 1.3 -3.4 1.7 -6.2 0.3 -3.3 1.1 -5.2 1.9 -5.2 3.5 0 18.3 9 24 14.5 15.1 14.9 19.9 35.4 19.9 85 0 27.2 -0.1 28.3 -2.7 37.7 -7.9 28.9 -27 46 -60.1 53.8 -10.3 2.4 -23 3.8 -42.1 4.5 -8.2 0.3 -15.2 0.8 -15.5 1.1 -0.3 0.3 -0.7 28.5 -0.8 62.7 -0.2 41.8 -0.6 62.3 -1.3 62.5 -1.6 0.6 -1.2 2 0.8 2.5 0.9 0.3 -0.1 0.5 -2.3 0.5 -2.2 0 -3.1 -0.3 -2.1 -0.5 1.5 -0.4 1.6 -0.7 0.5 -1.4 -1 -0.6 -1 -0.9 -0.1 -0.9 1.5 0 1.7 -15.7 0.1 -16.2 -0.6 -0.2 -0.7 -1.2 -0.2 -2.8 0.5 -1.4 0.6 -6.3 0.3 -11 -0.5 -8 -0.6 -8.5 -2.9 -8.8 -1.5 -0.2 -2.1 0 -1.7 0.7 0.4 0.6 0.2 1.1 -0.4 1.1 -0.6 0 -0.8 1 -0.4 2.6 0.5 1.8 0.3 2.5 -0.4 2 -0.6 -0.3 -1.3 0 -1.5 0.6 -0.4 0.8 -0.6 0.7 -0.6 -0.4 -0.1 -0.9 -1.1 -2 -2.2 -2.3 -1.6 -0.5 -1.8 -0.9 -0.9 -1.5 0.7 -0.4 0.9 -1.3 0.6 -1.9 -1.1 -1.8 -2.6 -1.3 -2.6 0.9 0 1.1 -0.5 2 -1.1 2 -0.6 0 -0.9 0.9 -0.6 2 0.3 1.3 -0.2 2.8 -1.5 4 -1.4 1.3 -1.9 2.7 -1.6 4.5 0.3 1.5 0 3.2 -0.8 4 -0.8 0.8 -1.3 1.8 -1.2 2.2 0.4 1.4 -1.3 5.3 -2.3 5.3 -0.5 0 -0.9 1.8 -0.9 4 0 2.2 0.5 4 1 4 0.6 0 0.9 1.5 0.8 3.3 -0.3 2.9 0 3.2 3 3.5 2.4 0.2 3.2 0.8 3.2 2.3 0 1.7 -0.8 1.9 -9.5 1.9 -5.2 0 -9.5 -0.3 -9.6 -0.7z"/>
  <path d="M566.1 451.9 c-3.1 -4.1 -4.3 -7.3 -1.8 -4.7 2.6 2.8 5.9 8 5.4 8.5 -0.3 0.3 -1.9 -1.4 -3.6 -3.8z"/>
  <path d="M557.6 437 c-4.6 -10 -6.5 -17.9 -7.3 -30.2 -0.8 -12.1 1 -26 4.4 -34.8 2.8 -7.1 8.9 -18.6 10.4 -19.5 0.5 -0.4 -0.9 2.7 -3.1 6.7 -2.2 4 -4 7.6 -4 8.1 0 1.5 1.9 0.7 2.2 -1 0.3 -1.5 0.5 -1.5 2.1 0.2 1.7 1.7 1.7 1.9 0.2 2.8 -0.9 0.5 -1.9 0.6 -2.2 0.3 -0.3 -0.3 -1.4 -0.1 -2.3 0.4 -4.1 2.2 -7.6 21.6 -6.5 35.5 1 12.4 2.5 19.2 6.6 29.5 2.1 5.2 3.7 9.6 3.5 9.7 -0.2 0.2 -1.9 -3.3 -4 -7.7z"/>
  <path d="M590 424.8 c-3.3 -7 -3.7 -8.8 -1.7 -8.8 0.8 0 1.9 1.7 2.5 3.8 0.6 2 2 5.4 3.1 7.5 1.5 3 1.6 3.7 0.4 3.7 -0.7 0 -2.7 -2.8 -4.3 -6.2z"/>
  <path d="M585.6 413.3 c-1.7 -6.1 -2.8 -15.1 -2.3 -19.9 0.9 -8.7 7.8 -21.7 10.2 -19.3 0.2 0.3 -0.9 3.1 -2.5 6.4 -3.4 7.2 -5.1 14.9 -4.5 20.1 0.6 5.3 1.5 10.5 2.1 12.7 0.3 1.1 0 1.7 -1 1.7 -0.8 0 -1.7 -0.8 -2 -1.7z"/>
  <path d="M593 372.9 c-1.3 -0.8 -1 -1.4 1.5 -3.5 8.3 -7 11.5 -7 4.5 0.1 -3.5 3.4 -4.8 4.2 -6 3.4z"/>
  <path d="M567 349.7 c0 -0.2 1.5 -1.6 3.3 -3.3 l3.2 -2.9 -2.9 3.3 c-2.8 3 -3.6 3.7 -3.6 2.9z"/>
  <path d="M596 330 c0.8 -0.5 2.4 -1 3.4 -1 2.6 0 1.8 0.6 -1.9 1.4 -2.2 0.5 -2.6 0.4 -1.5 -0.4z"/>
  <path d="M301.8 245.3 c1.1 -1.6 3.6 -4.4 5.6 -6.2 l3.6 -3.5 0 3.8 c0 4.6 -3.8 8.6 -8.2 8.6 l-2.9 0 1.9 -2.7z"/>
 </g>
 <g fill="#2c44e2">
  <path d="M386 801.6 c0 -2.6 0.5 -3.6 2 -4.1 1.1 -0.3 2 -1.1 2 -1.6 0 -0.5 0.7 -0.9 1.5 -0.9 0.8 0 1.5 -0.7 1.5 -1.6 0 -1.2 0.9 -1.4 3.8 -1.2 3.7 0.3 3.7 0.3 4 5.1 0.2 3.7 0 4.7 -1.2 4.7 -0.9 0 -1.6 0.6 -1.6 1.3 0 0.8 -2 1.3 -6 1.4 l-6 0.3 0 -3.4z"/>
  <path d="M570.4 650.6 c-7.2 -4.9 -12.8 -11.4 -17.2 -20.3 -8 -16 -9.6 -24.3 -9.7 -50.4 l0 -20.5 3.3 -0.2 c2 -0.2 3.1 0.1 2.7 0.7 -0.4 0.7 0.4 0.7 2.2 0.1 1.5 -0.4 7.4 -1.1 13.1 -1.4 l10.2 -0.6 0 14.7 c0 21.1 3.2 33.7 11 43.5 3.5 4.3 2 5.7 -1.9 1.9 -1.6 -1.6 -3.7 -2.6 -5.6 -2.6 -2.6 0 -3 0.4 -3.3 3 -0.3 2.6 -0.9 3.2 -5 4.5 -3.4 1.2 -4.8 2.2 -5.3 4 -0.4 1.4 -0.7 2.1 -0.8 1.7 -0.3 -2.2 -3.6 3.1 -3.9 6 -0.3 3.1 0.3 4.1 5.1 8.6 3 2.9 6.7 6.2 8.3 7.4 4.8 3.5 2.2 3.5 -3.2 -0.1z m-15.8 -26.3 c-1.1 -1.1 -1.9 0.6 -1.1 2.4 0.8 1.7 0.8 1.7 1.2 0 0.3 -1 0.2 -2.1 -0.1 -2.4z"/>
  <path d="M542.2 569 c0 -1.9 0.2 -2.7 0.5 -1.7 0.2 0.9 0.2 2.5 0 3.5 -0.3 0.9 -0.5 0.1 -0.5 -1.8z"/>
  <path d="M645.5 544.3 c-6.1 -12 -12.7 -19.9 -42.4 -51.2 -11.5 -12.1 -16.6 -18.2 -16.6 -19.8 -0.1 -2.5 0.3 -2.7 2.5 -1.3 0.8 0.5 1.1 1 0.5 1 -0.5 0.1 0 0.5 1.3 1 1.2 0.5 2.8 0.7 3.6 0.4 0.8 -0.3 1.7 -0.1 2.1 0.5 1 1.7 2.5 1.3 2.5 -0.7 0 -0.9 0.9 -2.3 2 -3 1.2 -0.7 2 -0.8 2 -0.2 0 0.5 0.6 1 1.3 1 1.4 0 3.9 -6.4 3.8 -9.8 -0.1 -2 0.3 -2.2 2.2 -1.6 1.2 0.3 2.8 1.1 3.4 1.6 1.6 1.3 4.7 0.2 3.7 -1.3 -0.8 -1.4 1 -0.5 4.1 2 1.4 1.1 1.2 0.7 -0.4 -1.2 -1.4 -1.5 -2 -2.7 -1.5 -2.7 1.1 0 39.8 38.7 45 45 8.8 10.7 14.3 20.4 18.8 32.8 2.1 5.9 2.3 7.2 1 7.2 -0.8 0 -1.7 -0.6 -2 -1.4 -0.3 -0.8 -1.2 -1.2 -1.9 -1 -0.7 0.3 -1.6 0.1 -2 -0.5 -0.3 -0.6 -0.1 -1.1 0.4 -1.1 0.6 0 1.1 -0.4 1.1 -1 0 -0.5 -0.7 -1 -1.6 -1 -1 0 -1.4 -0.6 -1 -1.5 0.6 -1.7 -1.9 -2.1 -2.9 -0.5 -0.3 0.5 -1.5 0.6 -2.8 0.2 -1.2 -0.5 -2.9 -0.8 -3.7 -0.7 -0.8 0.1 -2.3 -0.3 -3.2 -0.7 -1.1 -0.5 -1.8 -0.5 -1.8 0.2 0 1.6 -2.7 1.2 -3.4 -0.5 -0.3 -0.8 -1.5 -1.5 -2.6 -1.5 -1.1 0 -2 -0.4 -2 -1 0 -1.7 -2.9 -1.1 -5.2 1.2 -1.9 1.9 -2 1.9 -1.4 0.3 0.7 -1.8 0.6 -1.8 -1.3 -0.1 -1.1 1 -2.5 1.5 -3 1.1 -1.6 -0.9 -1.3 2.1 0.3 3.4 1.4 1.1 6.1 13 5.4 13.6 -0.2 0.2 -2.1 -3 -4.3 -7.2z m-51.5 -64.2 c-0.5 -1.1 -1.5 -2.3 -2 -2.6 -0.6 -0.4 -0.7 -1.1 -0.4 -1.7 0.4 -0.7 0.2 -0.8 -0.5 -0.4 -0.6 0.4 -2 0.2 -2.9 -0.5 -0.9 -0.7 0.1 0.6 2.3 2.9 4.3 4.7 5.1 5.1 3.5 2.3z"/>
  <path d="M656.5 401.7 c-0.2 -0.7 -0.5 -5 -0.8 -9.7 -0.6 -13.7 -4.8 -21 -15.7 -27.2 -4.2 -2.4 -6 -5.9 -1.9 -3.7 1.8 0.9 2 0.8 1.5 -0.9 -0.4 -1.1 -0.2 -2.3 0.4 -2.7 0.5 -0.3 1 -0.1 1 0.4 0 0.6 0.5 1.1 1.1 1.1 0.6 0 0.9 -1.2 0.7 -2.7 -0.2 -1.6 -0.8 -2.7 -1.5 -2.5 -1.8 0.3 -1.6 -1.8 0.2 -2.3 0.8 -0.3 2.2 -0.7 3 -1 1.1 -0.3 1.3 -1 0.5 -3 -0.7 -1.9 -0.6 -2.5 0.5 -2.5 1.1 0 1.2 -0.7 0.4 -3.2 -0.5 -1.8 -1.4 -3.5 -1.9 -3.6 -0.6 -0.2 -0.7 -0.8 -0.4 -1.3 0.4 -0.6 1.1 -0.6 1.9 0.1 0.9 0.8 1.1 0.5 0.8 -1.4 -0.3 -1.3 -1.6 -2.9 -3.1 -3.6 -2.1 -0.9 -2.3 -1.3 -1.1 -2.1 1 -0.6 0.6 -0.9 -1.6 -0.9 -2 0 -2.6 -0.3 -1.7 -0.9 2.3 -1.4 21 4.7 19.5 6.4 -0.5 0.4 -0.2 0.5 0.4 0.1 0.7 -0.4 2.2 -0.2 3.4 0.5 1.8 0.9 1.9 1.3 0.8 2.1 -1 0.7 -0.8 0.8 0.8 0.3 1.8 -0.5 3.3 0.4 7.3 4.5 9.1 9 12.9 21.5 13.7 45.3 l0.6 15.8 -14.2 -0.2 c-9.8 -0.1 -14.4 -0.5 -14.6 -1.2z"/>
  <path d="M717.8 367.6 c-0.5 -6 -0.8 -17 -0.8 -24.5 -0.1 -42.1 -7.6 -63.4 -29.8 -84.2 -9.2 -8.7 -21.6 -15.6 -33 -18.4 -6.4 -1.5 -8.1 -2.5 -13.4 -7.4 -6.6 -6 -10.8 -13.4 -10.8 -18.8 0 -3 0.3 -3.3 3 -3.3 1.7 0 4 -0.8 5.1 -1.9 3.9 -3.7 10.4 -3.4 27.4 0.9 27.8 7.2 40.9 13.6 54.9 26.9 14.7 14.2 22.7 30.6 26.6 55.1 0.6 3.6 1.3 15.5 1.6 26.5 0.2 11 0.6 24.1 0.8 29.2 0.2 8.2 0.1 9.2 -1.6 9.6 -1.6 0.5 -1.8 -0.2 -1.8 -7.6 -0.1 -8.2 -0.1 -8.2 -1.7 -5.2 -1.4 2.4 -1.8 2.7 -2.1 1.2 -0.3 -1.4 -0.7 -1.6 -1.7 -0.7 -1 0.9 -2.8 0.7 -7 -0.6 -5.4 -1.7 -5.8 -1.7 -7 -0.1 -0.7 0.9 -1.7 1.7 -2.4 1.7 -0.6 0 -1.1 0.5 -1.1 1.1 0 0.5 -0.5 0.7 -1.2 0.3 -0.7 -0.4 -0.8 -0.3 -0.4 0.5 0.4 0.6 0.2 1.9 -0.6 2.8 -0.9 1.1 -1.5 5.9 -1.8 14.7 l-0.5 13.1 -0.7 -10.9z m18.2 -26.1 c0 -1.7 -0.4 -2.3 -1.4 -1.9 -1.1 0.4 -1.4 1.9 -0.7 4.2 0.1 0.1 0.6 0.2 1.1 0.2 0.6 0 1 -1.1 1 -2.5z"/>
  <path d="M747 369 c0 -1.1 0.7 -2 1.5 -2 0.8 0 1.5 0.9 1.5 2 0 1.1 -0.7 2 -1.5 2 -0.8 0 -1.5 -0.9 -1.5 -2z"/>
 </g>
 <g fill="#0c6ee1">
  <path d="M283.6 717.8 c-0.3 -1.3 -0.5 -4.1 -0.5 -6.3 0.1 -3.3 0.3 -2.9 0.9 2 0.8 6.3 0.7 8.1 -0.4 4.3z"/>
  <path d="M281 684.5 c-0.3 -4.9 -0.4 -9.2 -0.3 -9.4 1 -1.5 1.3 1.8 1.1 9.5 l-0.3 8.9 -0.5 -9z"/>
  <path d="M280.4 660.5 c0 -7.7 0.2 -10.7 0.3 -6.7 0.2 4 0.2 10.3 0 14 -0.2 3.7 -0.3 0.4 -0.3 -7.3z"/>
  <path d="M279.7 635.5 c-3.1 -43.8 -5.7 -56.4 -14.9 -72 -5.6 -9.6 -18.4 -22.1 -28.7 -28 -7.8 -4.6 -9.8 -6.5 -6.6 -6.5 0.8 0 1.5 -0.8 1.6 -1.7 0 -1 0.2 -6.5 0.3 -12.3 0.3 -11.2 1.7 -19.8 3.4 -20.9 0.5 -0.3 1.2 -1.7 1.3 -3.1 0.3 -2 -0.1 -2.6 -1.8 -2.8 -1.3 -0.2 -2.3 -0.6 -2.3 -1 0.1 -0.4 3.9 -3.2 8.7 -6.2 22.1 -14.2 35 -38.1 38.2 -71 1.5 -15.3 3.1 -51.7 3.1 -71.5 0.1 -30.5 2.5 -53.7 7 -67.1 3.2 -9.5 11.2 -24.4 13.1 -24.4 2.3 0 3.6 1.8 4.4 6 l0.6 3.5 10.7 0.3 c9.7 0.3 10.9 0.1 12.9 -1.8 1.4 -1.2 3.6 -2 5.8 -2 3.5 0 3.5 0 3.5 4.3 0 3.4 -0.6 4.9 -2.6 6.8 -3.7 3.5 -11 14.7 -14.5 22.4 -5.9 13 -6.9 20.1 -7.9 53 -2.6 88.9 -4 99.6 -16.2 124 -9 17.9 -20 31 -34.1 40.6 -3.7 2.4 -6.7 4.9 -6.7 5.5 0 0.6 2.4 2.7 5.3 4.6 13.3 8.9 26.3 23.8 33.6 38.2 9.9 19.7 16.3 50.5 15.9 75.9 -0.1 6.2 -0.3 9.4 -0.5 7.2 -0.3 -2.2 -0.8 -4.2 -1.3 -4.5 -1.2 -0.8 -1.7 -16.9 -0.5 -17.4 0.6 -0.3 0.6 -0.7 -0.1 -1.3 -1.4 -1.1 -2.4 -6.2 -1.3 -6.9 1.5 -0.9 1 -4.1 -0.6 -4.8 -0.8 -0.3 -1.5 -1.8 -1.5 -3.3 0 -1.5 -0.7 -5.5 -1.4 -8.8 -0.9 -3.5 -1.1 -6.1 -0.5 -6.3 1.4 -0.5 1.1 -2.2 -0.5 -2.2 -1.7 0 -2.8 -5.2 -1.3 -6.2 0.8 -0.5 0.6 -0.8 -0.5 -0.8 -0.9 0 -1.9 0.6 -2.1 1.3 -0.4 0.9 -0.6 0.8 -0.6 -0.2 -0.1 -1.1 -0.5 -1 -2 0.3 -1.8 1.7 -2 1.6 -4.8 -1.8 -2.9 -3.8 -4.1 -4.4 -4 -2.3 0.1 4.5 -0.4 5.3 -3.4 5.5 -1.8 0.1 -3.6 0.5 -4 0.8 -1.3 0.8 -1.1 4.4 0.2 4.4 0.8 0 0.8 0.5 -0.1 1.5 -1.1 1.3 -1.5 1.2 -3.1 -0.7 -1.1 -1.2 -1.7 -2.9 -1.4 -3.8 0.4 -1.3 -0.1 -1.9 -2 -2.2 -1.4 -0.3 -2.5 -0.4 -2.5 -0.2 0 2.5 3.4 12.2 4.6 13 1 0.8 1.1 1.3 0.3 1.6 -0.9 0.3 -0.9 1.9 -0.1 6.8 1.6 9.2 3.4 35.3 3 43 -0.3 5.9 -0.4 5.4 -1.1 -4.5z m20.8 -65.8 c-3.3 -1.1 -4.5 -0.1 -1.9 1.7 1.4 1.1 2.2 1.2 3.3 0.3 1.1 -0.9 0.8 -1.3 -1.4 -2z m-1.3 -6.3 c-1.8 -1.3 -3.2 -0.3 -3.2 2.3 0 1 0.6 1 2.5 0.1 2.3 -1 2.3 -1.2 0.7 -2.4z"/>
  <path d="M365.9 553.8 c-0.4 -77.1 0.3 -151.1 1.6 -156.5 0.4 -1.8 1 -3.3 1.4 -3.3 0.3 0 0.6 -4.5 0.6 -10.1 0 -8.5 0.3 -10.2 1.8 -11 1.3 -0.8 1.7 -2.3 1.7 -7.4 0 -5.1 0.3 -6.5 1.5 -6.5 1.2 0 1.5 -1.4 1.5 -6.2 0 -7.7 2.6 -12.8 6.5 -12.8 1.4 0 2.5 -0.4 2.5 -1 0 -0.5 0.7 -1 1.5 -1 1.1 0 1.5 -1.1 1.5 -3.7 0 -7.1 -2.2 -6.7 40.2 -6.8 36.6 0 38.6 0.1 46.3 2.2 8.8 2.5 23.4 9.4 26.1 12.4 2.4 2.6 0.2 2.4 -4.4 -0.4 -2 -1.3 -5.2 -3.2 -7 -4.1 -3.3 -1.7 -3.4 -1.7 -2.7 0.2 0.3 1.1 0.1 2.3 -0.5 2.7 -0.6 0.3 -0.8 1 -0.5 1.5 0.3 0.4 -0.4 0.6 -1.5 0.3 -1.5 -0.4 -2 0 -2 1.5 0 1.2 -0.4 2.4 -1 2.7 -0.5 0.3 -0.7 2.5 -0.4 4.9 0.5 3.5 0.3 4.3 -1 4.3 -1 0 -1.5 -0.6 -1.2 -1.3 0.3 -0.8 0.1 -1.6 -0.4 -1.9 -0.6 -0.4 -1 0.1 -1 1 0 0.9 -0.7 2.4 -1.6 3.2 -0.8 0.9 -1.3 2.4 -1.1 3.4 0.3 1.1 0 1.9 -0.5 1.9 -0.6 0 -0.1 0.8 1 1.9 1.2 1 2.2 2.5 2.2 3.3 0 1.1 -1.3 0.8 -5.7 -1.3 -9.7 -4.7 -18.6 -5.9 -43.3 -5.9 -22 0 -22.1 0 -22.9 2.3 -1 2.7 -2 97.7 -1.2 116.7 l0.6 13.5 11 0.6 11 0.5 -11.6 0.2 c-9.8 0.2 -11.9 -0.1 -13 -1.5 -1.1 -1.2 -1.1 -1.7 -0.2 -2 2 -0.7 -1.5 -3.6 -4.5 -3.8 -1.6 0 -2.7 0.5 -3 1.7 -0.2 1 -0.8 1.8 -1.3 1.8 -0.5 0 -0.9 0.5 -0.9 1 0 0.6 0.9 1 1.9 1 1.4 0 1.8 0.5 1.4 2 -0.3 1.2 -0.8 1.8 -1.1 1.5 -1 -1 -4.2 2.8 -4.2 5 0 1.2 -0.9 3.2 -1.9 4.4 -1.1 1.3 -2.3 3.6 -2.6 5.2 -0.4 1.6 -1.1 3.1 -1.6 3.4 -0.5 0.4 -0.9 1.5 -0.9 2.5 0 1.1 -0.8 2.7 -1.8 3.7 -2.6 2.6 -4.8 10.1 -3.4 11.5 0.8 0.8 0.6 2.1 -0.9 5 -1.6 3.1 -1.8 4.3 -0.8 5.4 0.8 1 0.8 1.4 0 1.4 -0.6 0 -1.1 0.6 -1.1 1.4 0 0.8 -0.8 1.7 -1.7 2.1 -1.7 0.6 -1.7 0.7 0.1 2.1 1.9 1.4 1.9 1.4 -0.2 3.7 -1.2 1.3 -2.2 3.3 -2.2 4.5 0 1.2 -0.5 2.2 -1.1 2.2 -0.7 0 -0.9 0.9 -0.6 2.1 0.3 1.2 0.1 2.9 -0.6 3.9 -0.8 1.4 -0.8 2.2 0.2 3.4 1.1 1.3 1.1 1.6 -0.1 1.6 -1.3 0 -1.5 4.2 -1.7 28.2 -0.1 15.6 -0.4 28.4 -0.5 28.6 -0.2 0.1 -0.5 -32.7 -0.7 -73z m33.4 -72.4 c-0.3 -0.9 -0.9 -1.2 -1.2 -0.7 -0.3 0.4 -1 1.1 -1.5 1.6 -0.5 0.4 0 0.7 1.2 0.7 1.5 0 2 -0.4 1.5 -1.6z"/>
  <path d="M294 578.5 c0 -0.8 0.5 -1.5 1 -1.5 0.6 0 1 0.7 1 1.5 0 0.8 -0.4 1.5 -1 1.5 -0.5 0 -1 -0.7 -1 -1.5z"/>
  <path d="M401 555 c0 -0.5 0.7 -1 1.5 -1 0.8 0 1.5 0.5 1.5 1 0 0.6 -0.7 1 -1.5 1 -0.8 0 -1.5 -0.4 -1.5 -1z"/>
  <path d="M401 544.1 c0 -4.9 0.4 -9.1 0.8 -9.3 1.5 -0.5 2.3 -6.8 0.9 -6.8 -0.6 0 -0.3 -0.7 0.8 -1.6 1.4 -1.1 4.3 -1.4 10.7 -1.3 11.3 0.3 11.5 1.9 0.3 1.9 -8.3 0 -8.6 0.1 -9.5 2.6 -0.6 1.4 -1 7.2 -1 13 0 8.6 -0.3 10.4 -1.5 10.4 -1.2 0 -1.5 -1.7 -1.5 -8.9z"/>
  <path d="M424 526 c0 -0.5 2.5 -1 5.5 -1 3 0 5.5 0.5 5.5 1 0 0.6 -2.5 1 -5.5 1 -3 0 -5.5 -0.4 -5.5 -1z"/>
  <path d="M490.4 425.5 c0 -4.9 0.1 -7.1 0.3 -4.8 0.2 2.3 0.2 6.4 0 9 -0.2 2.6 -0.3 0.8 -0.3 -4.2z"/>
  <path d="M524.3 421.3 c-1.9 -0.7 -1.6 -5.3 0.2 -5.3 1 0 1.5 1 1.5 3 0 1.7 -0.1 3 -0.2 2.9 -0.2 0 -0.9 -0.3 -1.5 -0.6z"/>
  <path d="M523.2 395.8 c-0.1 -1.6 -0.6 -2.8 -1.2 -2.8 -1.4 0 -1.3 -3.7 0.1 -4.2 0.8 -0.3 0.5 -1 -0.6 -2.1 -1.1 -1.2 -1.5 -2.6 -1.1 -4.2 0.4 -1.6 0.2 -2.5 -0.5 -2.5 -0.6 0 -0.9 -0.9 -0.6 -2 0.3 -1.1 0.1 -2 -0.4 -2 -0.5 0 -0.9 -0.7 -0.9 -1.5 0 -0.8 0.6 -1.5 1.4 -1.5 1.7 0 5 16.7 4.3 22 -0.3 2.9 -0.4 3 -0.5 0.8z"/>
  <path d="M488.8 389.2 c-0.8 -5.4 -5.4 -14.8 -8.5 -17.2 -1.3 -1 -2.3 -2.4 -2.3 -3.1 0.1 -0.8 2 0.7 4.3 3.2 4.4 4.8 8.2 14.4 7.5 19.1 -0.2 1.6 -0.6 0.9 -1 -2z"/>
  <path d="M517 371 c0 -0.5 0.7 -1 1.5 -1 0.8 0 1.5 0.5 1.5 1 0 0.6 -0.7 1 -1.5 1 -0.8 0 -1.5 -0.4 -1.5 -1z"/>
  <path d="M516.4 367.5 c0.3 -0.8 0.1 -1.5 -0.5 -1.5 -0.6 0 -0.9 -0.7 -0.5 -1.5 0.3 -0.8 0.1 -1.5 -0.5 -1.5 -0.6 0 -0.7 -0.4 -0.4 -1 0.3 -0.5 0.1 -1 -0.5 -1 -0.6 0 -0.8 -0.4 -0.5 -1 0.3 -0.5 0.2 -1 -0.4 -1 -0.6 0 -1.7 -1.2 -2.5 -2.7 -0.8 -1.6 -3.1 -4.6 -5.2 -6.7 -2.3 -2.5 -3.3 -4.1 -2.5 -4.4 2.6 -0.9 10.9 10 14.2 19 1.7 4.3 1.7 4.8 0.3 4.8 -1 0 -1.4 -0.6 -1 -1.5z"/>
  <path d="M307 240.9 c0 -0.7 2.1 -3.2 4.7 -5.8 l4.8 -4.6 0.3 2.9 c0.3 2 -0.4 3.6 -2.4 5.7 -2.7 2.9 -7.4 4 -7.4 1.8z"/>
 </g>
 <g fill="#2154f2">
  <path d="M385.8 805.2 c-2.1 -0.2 -3.8 -0.6 -3.8 -1 0 -0.4 -2.4 -0.8 -5.3 -0.9 -6.6 -0.2 -26.7 -6.3 -37.2 -11.2 -9.4 -4.5 -25.4 -15.7 -26.5 -18.6 -0.9 -2.2 -5 -6.3 -5 -4.9 0 0.5 -0.6 -0.2 -1.3 -1.6 -0.8 -1.4 -1.9 -2.4 -2.6 -2.2 -0.7 0.1 -1 -0.2 -0.6 -0.8 0.4 -0.6 -0.5 -2.6 -1.9 -4.5 -1.4 -1.8 -2.6 -3.6 -2.6 -4 0 -0.3 -1.1 -2.3 -2.5 -4.4 -1.3 -2.2 -2.7 -5.2 -3.1 -6.7 -0.4 -1.5 -1.3 -3.9 -2 -5.3 -0.7 -1.3 -1.1 -2.8 -0.8 -3.3 0.6 -0.9 4.4 2.9 4.4 4.3 0 0.5 0.6 0.6 1.4 0.3 0.8 -0.3 1.2 -1.4 0.9 -2.7 -1 -4.6 -1.3 -5 -2.7 -3.8 -1.4 1.2 -2.6 0.5 -2.6 -1.5 0 -1.5 5.6 -2.4 7.1 -1 0.9 0.8 0.9 0.5 0 -1.1 -0.6 -1.3 -1.7 -2.2 -2.4 -2 -0.6 0.1 -1.3 -0.9 -1.4 -2.3 -0.2 -2.2 -0.2 -2.3 0.6 -0.5 0.9 1.8 1 1.8 1 0.2 0.1 -1 0.5 -1.5 1.1 -1.2 0.6 0.4 1 -0.5 1 -1.9 0 -1.4 0.5 -2.6 1 -2.6 0.6 0 1 0.5 1 1.2 0 0.6 0.6 0.3 1.4 -0.7 0.8 -1.1 1.2 -2.5 0.9 -3.1 -0.2 -0.7 0 -1.5 0.6 -1.9 0.6 -0.3 1.1 -0.1 1.1 0.5 0 0.7 0.6 0.5 1.5 -0.4 0.8 -0.8 1.5 -1.9 1.5 -2.5 0 -0.6 1.1 -1.1 2.5 -1.1 2.1 0 2.5 -0.5 2.5 -2.7 0 -1.9 0.9 -0.3 2.6 4.6 3.3 9.8 5.1 13.1 7.2 13.1 1.3 0 1.4 0.2 0.4 0.9 -1 0.6 -0.8 1 1 1.5 1.9 0.5 2 0.8 0.8 1.6 -1.3 0.9 -1.3 1 0 1 2 0 4.6 4 2.8 4.1 -0.8 0 -0.7 0.3 0.3 0.7 0.9 0.4 4.3 3.9 7.7 7.8 11.1 13 25 21.8 40.8 25.7 7.3 1.7 9.4 2.8 13.4 6.4 6.2 5.6 11 14.9 11 21.2 0 5.8 -1.1 7.5 -4 6.6 -1.5 -0.5 -2.6 -0.2 -3.2 0.6 -0.8 1.1 -1.1 1.1 -1.5 0.1 -0.3 -0.7 -1 -0.9 -1.6 -0.5 -0.7 0.5 -2.9 0.7 -4.9 0.5z m9.2 -3.6 c0 -0.9 -3.9 -1.3 -5.1 -0.5 -1 0.6 -0.4 0.9 1.9 0.9 1.7 0 3.2 -0.2 3.2 -0.4z m2.1 -5.9 c-0.8 -0.8 -1.1 -0.7 -1.1 0.4 0 2 1.3 3.4 1.8 1.9 0.3 -0.7 -0.1 -1.7 -0.7 -2.3z"/>
  <path d="M375.2 657.9 c-0.9 -1.3 -1.9 -1.8 -3.2 -1.4 -2.6 0.8 -3.6 -1.3 -1.4 -3 1.5 -1.1 1.7 -1.6 0.7 -2.6 -0.7 -0.7 -1.3 -1.7 -1.3 -2.1 0 -1.2 3.8 -1 4.5 0.2 0.4 0.6 1.6 0.8 2.7 0.4 1.8 -0.5 2 -0.3 1.5 1.6 -1.2 4.6 -0.2 5 11.7 5 7.5 0 10.6 -0.3 9.6 -1 -1.3 -0.8 -1.2 -1 0.3 -1 0.9 0 1.7 0.5 1.7 1 0 0.6 0.7 1 1.5 1 0.8 0 1.5 0.7 1.5 1.5 0 1.7 -0.9 1.9 -4.4 0.5 -2 -0.7 -2.4 -0.6 -1.9 0.5 0.4 1.2 -1 1.5 -8.1 1.5 -6.2 0 -8.6 -0.3 -8.6 -1.2 0 -1 -0.3 -0.9 -0.9 0.1 -0.7 1.1 -0.9 1.1 -1.4 0 -0.4 -1 -0.6 -1 -0.6 -0.1 -0.1 1.9 -2.5 1.4 -3.9 -0.9z"/>
  <path d="M401 649.5 c0 -2.3 0.5 -3.5 1.4 -3.5 0.8 0 1.5 1.4 1.8 3.5 0.3 2.9 0.1 3.5 -1.4 3.5 -1.4 0 -1.8 -0.8 -1.8 -3.5z"/>
  <path d="M556.8 559.3 c2.3 -0.2 5.9 -0.2 8 0 2 0.2 0.1 0.4 -4.3 0.4 -4.4 0 -6.1 -0.2 -3.7 -0.4z"/>
  <path d="M572 559 c0 -0.5 0.7 -1 1.5 -1 0.8 0 1.5 0.5 1.5 1 0 0.6 -0.7 1 -1.5 1 -0.8 0 -1.5 -0.4 -1.5 -1z"/>
  <path d="M593 482.5 c-4.1 -4.1 -7.2 -7.7 -6.9 -7.9 0.3 -0.3 3.8 2.8 7.9 6.9 4.1 4.1 7.2 7.7 6.9 7.9 -0.3 0.3 -3.8 -2.8 -7.9 -6.9z"/>
  <path d="M627.8 468.3 c-4.9 -4.7 -8.6 -8.9 -8.3 -9.2 0.3 -0.3 4.7 3.6 9.8 8.7 5 5.1 8.7 9.2 8.2 9.2 -0.6 0 -4.9 -3.9 -9.7 -8.7z"/>
  <path d="M578 466.5 c-1.3 -1.4 -2.1 -2.7 -1.8 -3 0.2 -0.3 1.5 0.6 2.8 2 1.3 1.4 2.1 2.7 1.8 3 -0.2 0.3 -1.5 -0.6 -2.8 -2z"/>
  <path d="M571.5 459 c-1 -1.1 -1.3 -2 -0.8 -2 1.3 0 3.8 2.9 3.1 3.5 -0.3 0.3 -1.3 -0.4 -2.3 -1.5z"/>
  <path d="M567.6 453.8 c-2.4 -3.3 -1.9 -4.5 0.5 -1.4 1.2 1.5 1.9 2.9 1.6 3.2 -0.3 0.3 -1.2 -0.5 -2.1 -1.8z"/>
  <path d="M605 445.5 c-1.9 -1.9 -2.9 -3.5 -2.4 -3.5 0.6 0 2.5 1.6 4.4 3.5 1.9 1.9 2.9 3.5 2.4 3.5 -0.6 0 -2.5 -1.6 -4.4 -3.5z"/>
  <path d="M598 437.5 c-0.7 -0.8 -0.8 -1.5 -0.2 -1.5 0.5 0 1.5 0.7 2.2 1.5 0.7 0.8 0.8 1.5 0.2 1.5 -0.5 0 -1.5 -0.7 -2.2 -1.5z"/>
  <path d="M649.7 372.3 c-2.9 -3.8 -9.5 -8.1 -15.3 -10 -5.3 -1.6 -6.4 -2.6 -4.4 -3.8 2.6 -1.6 18.2 8.3 20.8 13.2 1.8 3.3 1.1 3.7 -1.1 0.6z"/>
  <path d="M681 373 c0 -0.5 0.7 -1 1.5 -1 0.8 0 1.5 0.5 1.5 1 0 0.6 -0.7 1 -1.5 1 -0.8 0 -1.5 -0.4 -1.5 -1z"/>
  <path d="M599.2 367.1 c-1 -0.6 -0.7 -1.2 1.2 -2.4 1.6 -1.1 2.7 -1.3 3.1 -0.6 0.4 0.6 0.5 1.1 0.4 1.2 -0.2 0.2 -1.1 0.8 -1.9 1.4 -0.9 0.7 -2.1 0.8 -2.8 0.4z"/>
  <path d="M609.1 361.1 c-0.9 -0.6 -0.4 -1 1.8 -1.3 2 -0.3 3 -0.1 2.8 0.6 -0.5 1.4 -2.9 1.8 -4.6 0.7z"/>
  <path d="M617.6 359.1 c-0.7 -1 2.7 -2.1 6.7 -2.1 1.7 0 2.7 0.5 2.7 1.5 0 1.1 -1.2 1.5 -4.4 1.5 -2.5 0 -4.7 -0.4 -5 -0.9z"/>
  <path d="M674.2 349.5 c-2.6 -5.5 -1.2 -5.9 2.3 -0.8 2.8 4.2 3.1 5.3 1.2 5.3 -0.7 0 -2.3 -2 -3.5 -4.5z"/>
  <path d="M666.6 340.5 c-2.1 -1.9 -4.6 -3.7 -5.7 -4 -1 -0.4 -1.9 -1.1 -1.9 -1.6 0 -0.5 -0.3 -0.8 -0.7 -0.7 -0.5 0.1 -4.4 -1 -8.8 -2.4 -4.4 -1.5 -8.9 -2.9 -10 -3.1 -1.6 -0.4 -1.5 -0.5 0.5 -0.6 3.8 -0.1 11.9 2.3 19.1 5.7 6.9 3.3 15.5 10.1 12.8 10.2 -0.8 0 -3.2 -1.6 -5.3 -3.5z"/>
  <path d="M607.1 327.6 c1.1 -0.9 6.9 -1.4 6.9 -0.6 0 0.6 -1.6 1 -3.7 1 -2 0 -3.4 -0.2 -3.2 -0.4z"/>
  <path d="M619.3 326.3 c2 -0.2 5.4 -0.2 7.5 0 2 0.2 0.3 0.4 -3.8 0.4 -4.1 0 -5.8 -0.2 -3.7 -0.4z"/>
  <path d="M684 255.5 c-1.3 -1.4 -2.1 -2.7 -1.8 -3 0.2 -0.3 1.5 0.6 2.8 2 1.3 1.4 2.1 2.7 1.8 3 -0.2 0.3 -1.5 -0.6 -2.8 -2z"/>
  <path d="M732 254.5 c-0.7 -0.9 -1 -1.8 -0.7 -2.2 0.8 -0.7 3.7 1.5 3.7 2.8 0 1.4 -1.6 1.1 -3 -0.6z"/>
  <path d="M678.5 251.4 c-3.6 -2.8 -14.9 -8.1 -21 -9.9 -10.4 -3 -11.9 -3.8 -17.4 -9 -6.5 -6.1 -9.2 -11.1 -9.8 -18.5 -0.7 -7.8 0.2 -8.4 12 -7.7 18.4 1.1 49.8 10.4 62.7 18.6 4.9 3.1 0.6 1.8 -8.3 -2.5 -8 -3.9 -14.8 -6.2 -20 -6.8 -2.1 -0.3 -4.4 -0.9 -5 -1.4 -1.1 -0.9 -13.9 -4.2 -21.7 -5.7 -3.3 -0.7 -3.4 -0.6 -1.5 0.8 2.6 2 1.4 3.2 -1.5 1.7 -1.8 -0.9 -2.8 -0.9 -4.6 0 -1.3 0.7 -2.1 1.7 -1.8 2.2 0.5 0.7 -2.1 1.2 -6.8 1.1 -2.3 0 -2.4 3.4 -0.2 6.5 1 1.4 2.5 2.2 4.4 2.2 2.7 0 2.9 0.2 2.4 3 -0.5 2.4 -0.1 3.4 2.7 6 1.9 1.7 4.5 3.3 5.9 3.6 4.2 0.9 12.3 3.6 16 5.3 6.7 3 16 9.3 16 10.7 0 1.7 0 1.7 -2.5 -0.2z"/>
  <path d="M719.2 237.8 c-6.9 -7.2 -5.5 -7.6 1.6 -0.5 3.1 3.1 5.2 5.7 4.5 5.7 -0.6 0 -3.4 -2.4 -6.1 -5.2z"/>
 </g>
 <g fill="#0f7cee">
  <path d="M280.3 646.5 c0 -2.2 0.2 -3 0.4 -1.7 0.2 1.2 0.2 3 0 4 -0.3 0.9 -0.5 -0.1 -0.4 -2.3z"/>
  <path d="M279.3 620.5 c0 -2.2 0.2 -3 0.4 -1.7 0.2 1.2 0.2 3 0 4 -0.3 0.9 -0.5 -0.1 -0.4 -2.3z"/>
  <path d="M257 552.5 c-0.7 -0.9 -1.1 -1.8 -0.8 -2 0.3 -0.3 1.1 0.1 1.8 1 0.7 0.9 1.1 1.8 0.8 2 -0.3 0.3 -1.1 -0.1 -1.8 -1z"/>
  <path d="M366.2 441.3 l-0.2 -113.3 13.8 0 c7.5 0 27 -0.2 43.2 -0.4 22.6 -0.3 26.1 -0.3 15 0.4 -8 0.4 -21.6 0.9 -30.2 1.1 -15.2 0.2 -15.8 0.3 -16 2.3 -0.1 1.2 -0.2 2.8 -0.4 3.6 -0.1 0.8 -0.2 2.5 -0.3 3.8 -0.1 1.3 -0.7 2.2 -1.7 2.2 -0.8 0 -1.2 0.5 -0.9 1 0.6 0.9 -1.1 1.4 -4.3 1.3 -1.5 -0.1 -4.1 3.5 -4.7 6.6 -0.2 1.1 0 2.1 0.5 2.1 0.5 0 0.8 1.3 0.8 3 -0.1 1.6 -0.5 3 -1 3 -0.4 0 -0.8 0.9 -0.8 2 0 1.1 -0.6 2 -1.3 2 -1 0 -1.4 1.8 -1.5 6.3 -0.1 4.5 -0.6 6.5 -1.9 7.4 -2.1 1.6 -3.2 12.8 -1.4 14.6 1.6 1.6 1.4 5.7 -0.4 6.3 -0.9 0.4 -1.3 1.3 -1 2.3 0.3 1 -0.4 2.7 -1.6 4 -1.7 1.7 -1.8 2.5 -0.9 3.6 0.7 0.8 0.9 1.5 0.6 1.5 -0.4 0 -0.2 0.9 0.4 2.1 0.9 1.7 0.8 2.3 -0.7 3.4 -1.7 1.3 -1.8 4.5 -2.1 60.7 -0.1 32.6 -0.3 64 -0.5 69.8 -0.1 5.8 -0.4 -40.5 -0.5 -102.7z"/>
  <path d="M248 543.5 c-1.3 -1.4 -2.1 -2.7 -1.8 -3 0.2 -0.3 1.5 0.6 2.8 2 1.3 1.4 2.1 2.7 1.8 3 -0.2 0.3 -1.5 -0.6 -2.8 -2z"/>
  <path d="M288.9 542.3 c-0.1 -0.5 -0.1 -1.1 0 -1.5 0 -0.5 -0.4 -0.8 -1 -0.8 -0.5 0 -0.7 -0.5 -0.4 -1.1 0.5 -0.6 1.2 -0.4 2.1 0.8 1.6 2.2 1.8 3.3 0.4 3.3 -0.5 0 -1.1 -0.3 -1.1 -0.7z"/>
  <path d="M241.4 538.5 c-4.7 -3.7 -16.2 -9.1 -23.4 -11 -3.6 -1 -7.5 -2.7 -8.7 -3.8 -4.3 -3.8 -5.4 -21.7 -1.7 -28.9 1.5 -3 2.1 -3.2 11.3 -4.8 11.8 -2.1 22.2 -7.5 32.4 -16.8 4.8 -4.3 4.7 -4.2 -1.3 2.4 -10.1 11.1 -10.1 11.1 -10.2 19.2 0 1.2 -0.6 2.2 -1.4 2.2 -0.7 0 -1.6 1 -1.8 2.3 -0.3 1.2 -0.8 3.6 -1.1 5.2 -0.9 4.8 -1 15.6 -0.2 20.9 0.6 3.4 0.5 4.6 -0.2 4.1 -2.6 -1.5 -0.8 1.2 1.9 3 1.6 1.1 3 2.6 3 3.3 0 0.7 0.4 1.1 0.9 0.8 0.9 -0.6 4.7 3.1 4 3.9 -0.3 0.2 -1.8 -0.7 -3.5 -2z"/>
  <path d="M268 519.5 c-0.7 -0.8 -0.8 -1.5 -0.2 -1.5 0.5 0 1.5 0.7 2.2 1.5 0.7 0.8 0.8 1.5 0.2 1.5 -0.5 0 -1.5 -0.7 -2.2 -1.5z"/>
  <path d="M257.5 511.5 c-1.6 -1.3 -2.5 -2.4 -2 -2.4 0.6 0 2.4 1.1 4 2.4 1.7 1.4 2.6 2.5 2 2.5 -0.5 0 -2.3 -1.1 -4 -2.5z"/>
  <path d="M256 508 c-0.9 -0.6 0 -1.6 3.1 -3.6 5.1 -3.4 6.9 -4.7 11.9 -9.1 3.7 -3.3 6 -4.2 6 -2.4 0 1.4 -9.5 9.6 -14.9 12.9 -2.9 1.8 -5.3 2.7 -6.1 2.2z"/>
  <path d="M281.1 487.1 c-1.1 -0.7 -0.8 -1.3 1.3 -2.6 3.3 -2.2 4.7 -1.1 2 1.5 -1.2 1.3 -2.4 1.6 -3.3 1.1z"/>
  <path d="M285.9 480.9 c-1.1 -0.7 -1 -0.9 0.5 -0.9 1.2 0 1.6 -0.5 1.2 -1.6 -0.3 -0.9 0.4 -2.5 1.8 -3.9 1.3 -1.3 2.1 -2.6 1.8 -2.9 -0.3 -0.3 0.5 -0.6 1.7 -0.6 l2.2 0 -2.2 3.3 c-4.9 6.9 -5.5 7.6 -7 6.6z"/>
  <path d="M298 461.6 c-1 -1.4 -1 -1.6 0.6 -1.6 1.6 0 1.7 -0.2 0.4 -1 -1.1 -0.7 -1.1 -1 -0.2 -1 0.7 0 1 -0.4 0.7 -1 -0.3 -0.5 0.1 -1 0.9 -1 1.9 0 1.9 0 0.3 3.9 -1.2 2.8 -1.5 3 -2.7 1.7z"/>
  <path d="M525.4 434.5 c0 -4.9 0.1 -7.1 0.3 -4.8 0.2 2.3 0.2 6.4 0 9 -0.2 2.6 -0.3 0.8 -0.3 -4.2z"/>
  <path d="M400 439 c0 -0.5 0.7 -1 1.5 -1 0.8 0 1.5 0.5 1.5 1 0 0.6 -0.7 1 -1.5 1 -0.8 0 -1.5 -0.4 -1.5 -1z"/>
  <path d="M401.3 431.3 c-2.1 -0.7 -1.6 -8.1 0.5 -8.6 1.6 -0.4 1.6 -0.5 0 -0.6 -1.5 -0.1 -1.8 -1.1 -1.8 -6.6 0 -5.1 0.3 -6.5 1.5 -6.5 0.8 0 1.5 0.3 1.6 0.8 1.1 10.2 0.1 22.1 -1.8 21.5z"/>
  <path d="M490.4 407 c0 -7.4 0.1 -10.5 0.3 -6.7 0.2 3.7 0.2 9.7 0 13.5 -0.2 3.7 -0.3 0.6 -0.3 -6.8z"/>
  <path d="M280.3 397 c0 -3 0.2 -4.3 0.4 -2.7 0.2 1.5 0.2 3.9 0 5.5 -0.2 1.5 -0.4 0.2 -0.4 -2.8z"/>
  <path d="M401 391.6 c0 -7.4 0.4 -10.6 1.3 -10.9 1 -0.4 1 -0.6 0 -0.6 -0.7 -0.1 -1.3 -0.7 -1.3 -1.5 0 -0.8 0.6 -1.7 1.3 -1.9 0.9 -0.4 0.8 -0.8 -0.3 -1.6 -1.3 -0.9 -1.3 -1.1 0.3 -1.1 1.5 0 1.7 1.3 1.7 14 0 11.8 -0.2 14 -1.5 14 -1.2 0 -1.5 -1.8 -1.5 -10.4z"/>
  <path d="M310 397.1 c0 -0.5 0.6 -1.2 1.3 -1.4 0.9 -0.4 0.8 -0.8 -0.3 -1.6 -0.9 -0.7 -1 -1.1 -0.3 -1.1 0.7 0 1.4 -1.9 1.6 -4.2 0.2 -3.1 0.4 -2.4 0.5 2.5 0.2 5.4 -0.1 6.7 -1.3 6.7 -0.8 0 -1.5 -0.4 -1.5 -0.9z"/>
  <path d="M281.1 375.7 c0 -7 0.5 -12.9 0.9 -13.2 0.8 -0.5 0.1 24.5 -0.7 25.5 -0.2 0.2 -0.3 -5.3 -0.2 -12.3z"/>
  <path d="M311 370 c0 -2.2 0.5 -4 1 -4 1.4 0 1.2 -2.7 -0.2 -3.3 -0.8 -0.3 -0.6 -0.6 0.5 -0.6 1.4 -0.1 1.7 0.8 1.7 5.9 0 4.7 -0.3 6 -1.5 6 -1.1 0 -1.5 -1.1 -1.5 -4z"/>
  <path d="M402 372 c-0.9 -0.6 -1 -1 -0.3 -1 0.6 0 1.4 -0.8 1.6 -1.7 0.3 -1.1 0.5 -0.7 0.6 1 0.1 3 0.1 3 -1.9 1.7z"/>
  <path d="M402.3 364.4 c-0.7 -0.7 -1.3 -1.9 -1.3 -2.7 0 -2.1 3.5 -4.8 5.4 -4.1 2 0.8 2.1 2.4 0.1 2.4 -0.8 0 -1.5 0.8 -1.5 1.8 0 2.9 -1.3 4.2 -2.7 2.6z"/>
  <path d="M282.4 346 c0 -8.5 0.2 -12 0.3 -7.7 0.2 4.2 0.2 11.2 0 15.5 -0.1 4.2 -0.3 0.7 -0.3 -7.8z"/>
  <path d="M454 360 c0 -0.5 0.7 -1 1.5 -1 0.8 0 1.5 0.5 1.5 1 0 0.6 -0.7 1 -1.5 1 -0.8 0 -1.5 -0.4 -1.5 -1z"/>
  <path d="M422 359 c0 -0.5 0.7 -1 1.5 -1 0.8 0 1.5 0.5 1.5 1 0 0.6 -0.7 1 -1.5 1 -0.8 0 -1.5 -0.4 -1.5 -1z"/>
  <path d="M427 359 c0 -0.5 0.9 -1 2 -1 1.1 0 2 0.5 2 1 0 0.6 -0.9 1 -2 1 -1.1 0 -2 -0.4 -2 -1z"/>
  <path d="M433 359 c0 -1.2 14.7 -1.2 17.5 0 1.3 0.6 -1.4 0.9 -7.7 0.9 -5.9 0.1 -9.8 -0.3 -9.8 -0.9z"/>
  <path d="M410 357.5 c-1.1 -1.3 -0.8 -1.5 2.3 -1.5 2.8 0 3.5 0.3 3.1 1.5 -0.7 1.8 -2.4 2 -2.4 0.3 0 -1 -0.2 -1 -0.9 0 -0.6 1 -1 1 -2.1 -0.3z"/>
  <path d="M311 355.5 c0 -1.6 0.6 -2.5 1.5 -2.5 0.9 0 1.5 0.9 1.5 2.5 0 1.6 -0.6 2.5 -1.5 2.5 -0.9 0 -1.5 -0.9 -1.5 -2.5z"/>
  <path d="M312 328.5 c0 -6 0.3 -7.5 1.5 -7.5 1.2 0 1.5 1.5 1.5 7.5 0 6 -0.3 7.5 -1.5 7.5 -1.2 0 -1.5 -1.5 -1.5 -7.5z"/>
  <path d="M320 288.4 c-1 -1.1 -1 -1.4 -0.1 -1.4 0.7 0 1 -0.4 0.6 -1 -1.1 -1.7 10.9 -22.6 14.9 -25.9 1.8 -1.5 2.2 -4.1 0.6 -4.1 -0.5 0 -1 0.7 -1 1.7 0 0.9 -0.3 1.3 -0.7 1 -0.9 -0.9 -3.4 1.3 -2.7 2.4 0.3 0.5 -0.2 0.9 -1 0.9 -0.9 0 -1.6 -0.4 -1.6 -1 0 -1.4 -2.7 -1.2 -3.3 0.3 -0.4 0.9 -0.8 0.9 -1.4 0.1 -0.4 -0.6 -2.9 -1.1 -5.6 -1.1 -2.6 0 -5 -0.3 -5.3 -0.6 -0.3 -0.3 -1.7 -0.2 -3.1 0.4 -4.3 1.6 -6.3 1.1 -6.3 -1.5 0 -1.4 -0.5 -2.8 -1.1 -3.1 -0.6 -0.4 -0.8 -1.3 -0.5 -2.1 0.3 -0.7 -0.4 -2 -1.6 -2.8 -2.1 -1.5 -2.1 -1.6 2.3 -5.9 2.4 -2.5 6.9 -7 9.9 -10.2 12 -12.5 33.2 -21.5 62.3 -26.5 13.4 -2.3 22.7 -2.6 24.5 -0.8 0.7 0.7 1.2 3.2 1.2 5.8 0 10.5 -10.3 23.6 -20.8 26.6 -13.5 3.7 -16.7 5 -24.5 9.7 -5 3 -11.6 8.4 -16.8 13.6 -6.9 7 -9.5 10.4 -13.2 17.8 -3.7 7.6 -4.8 8.9 -5.7 7.7z"/>
 </g>
</svg>